<?xml version="1.0" encoding="UTF-8" standalone="no"?>
<!-- Created with Inkscape (http://www.inkscape.org/) -->

<svg
   xmlns:dc="http://purl.org/dc/elements/1.1/"
   xmlns:cc="http://creativecommons.org/ns#"
   xmlns:rdf="http://www.w3.org/1999/02/22-rdf-syntax-ns#"
   xmlns:svg="http://www.w3.org/2000/svg"
   xmlns="http://www.w3.org/2000/svg"
   xmlns:sodipodi="http://sodipodi.sourceforge.net/DTD/sodipodi-0.dtd"
   xmlns:inkscape="http://www.inkscape.org/namespaces/inkscape"
   inkscape:version="0.91 r13725"
   version="1.1"
   id="svg2"
   viewBox="0 0 177.16525 177.16525"
   height="50mm"
   width="50mm"
   sodipodi:docname="php_leuven_white.svg"
   inkscape:export-filename="/Users/bart/Desktop/text6225.png"
   inkscape:export-xdpi="90"
   inkscape:export-ydpi="90">
  <sodipodi:namedview
     inkscape:window-maximized="0"
     inkscape:window-y="0"
     inkscape:window-x="-4"
     inkscape:window-height="755"
     inkscape:window-width="1276"
     showgrid="false"
     inkscape:current-layer="g6130"
     inkscape:document-units="px"
     inkscape:cy="209.21483"
     inkscape:cx="-77.641503"
     inkscape:zoom="0.82749998"
     inkscape:pageshadow="2"
     inkscape:pageopacity="0"
     borderopacity="1.0"
     bordercolor="#666666"
     pagecolor="#000000"
     id="base"
     showguides="false" />
  <defs
     id="defs4" />
  <metadata
     id="metadata7">
    <rdf:RDF>
      <cc:Work
         rdf:about="">
        <dc:format>image/svg+xml</dc:format>
        <dc:type
           rdf:resource="http://purl.org/dc/dcmitype/StillImage" />
        <dc:title></dc:title>
      </cc:Work>
    </rdf:RDF>
  </metadata>
  <g
     id="layer1"
     inkscape:groupmode="layer"
     inkscape:label="Layer 1"
     transform="translate(0,-875.19653)" />
  <g
     id="g6130"
     transform="translate(-46.303746,-886.89264)"
     style="fill:#ff0000">
    <path
       style="fill:#ffffff;fill-opacity:1"
       d="m 127.50926,888.45999 a 16.524178,10.64269 86.49652 0 0 -0.70416,0.008 16.524178,10.64269 86.49652 0 0 -8.87502,9.51004 78.419825,78.419825 0 0 0 -12.6852,3.95101 16.524178,10.64269 58.88102 0 0 -12.590445,-2.70399 16.524178,10.64269 58.88102 0 0 -3.638604,11.66607 78.419825,78.419825 0 0 0 -9.773794,8.22719 78.419825,78.419825 0 0 0 -0.0409,0.0409 78.419825,78.419825 0 0 0 -4.040617,4.47336 16.524178,10.64269 35.813625 0 0 -12.139786,2.61181 16.524178,10.64269 35.813625 0 0 -1.188116,2.78593 16.524178,10.64269 31.691257 0 0 -0.03579,0.14083 16.524178,10.64269 35.813625 0 0 -0.02045,0.11773 16.524178,10.64269 31.691257 0 0 3.07784,10.0324 78.419825,78.419825 0 0 0 -0.655512,1.352 78.419825,78.419825 0 0 0 -0.588939,1.21372 78.419825,78.419825 0 0 0 -0.478825,0.99095 78.419825,78.419825 0 0 0 -0.732338,1.63878 78.419825,78.419825 0 0 0 -0.632465,1.72328 78.419825,78.419825 0 0 0 -0.650386,1.53636 78.419825,78.419825 0 0 0 -0.476269,1.53635 78.419825,78.419825 0 0 0 -0.220213,0.60175 78.419825,78.419825 0 0 0 -0.696482,2.10992 78.419825,78.419825 0 0 0 -0.880851,3.09065 78.419825,78.419825 0 0 0 -0.04602,0.15107 78.419825,78.419825 0 0 0 -0.01049,0.0462 78.419825,78.419825 0 0 0 -0.289343,1.01911 78.419825,78.419825 0 0 0 -0.115239,0.4353 16.524178,10.64269 8.6238621 0 0 -9.650885,7.88151 16.524178,10.64269 8.6238621 0 0 7.66387,10.79291 78.419825,78.419825 0 0 0 0.03068,0.96534 78.419825,78.419825 0 0 0 0.01049,1.11642 78.419825,78.419825 0 0 0 0.07932,2.17651 78.419825,78.419825 0 0 0 0.24326,2.18928 78.419825,78.419825 0 0 0 0.02819,0.27138 78.419825,78.419825 0 0 0 0.412265,3.72056 78.419825,78.419825 0 0 0 0.194596,1.41092 78.419825,78.419825 0 0 0 0.227895,1.0601 10.64269,16.524178 71.008362 0 0 -5.548807,11.94506 10.64269,16.524178 71.008362 0 0 11.112979,6.0251 78.419825,78.419825 0 0 0 0.632477,1.4647 78.419825,78.419825 0 0 0 1.060082,2.243 78.419825,78.419825 0 0 0 4.137921,7.372 78.419825,78.419825 0 0 0 0.0333,0.049 78.419825,78.419825 0 0 0 3.490092,4.842 10.64269,16.524178 43.818599 0 0 0.50443,13.2075 10.64269,16.524178 43.818599 0 0 1.75145,1.2266 l 0.0052,0 a 10.64269,16.524178 43.818599 0 0 10.815953,-0.9142 78.419825,78.419825 0 0 0 8.234873,6.0328 78.419825,78.419825 0 0 0 2.79104,1.5313 8.5356225,9.7859892 20.531182 0 0 4.673103,11.8273 8.5356225,9.7859892 20.531182 0 0 11.01823,-5.2211 78.419825,78.419825 0 0 0 16.04981,3.0958 10.64269,16.524178 0 0 0 9.20022,8.2682 10.64269,16.524178 0 0 0 9.42812,-8.9134 78.419825,78.419825 0 0 0 16.63618,-4.3787 78.419825,78.419825 0 0 0 0.0538,-0.021 78.419825,78.419825 0 0 0 1.48514,-0.6682 16.524178,10.64269 62.810237 0 0 11.90164,3.0982 16.524178,10.64269 62.810237 0 0 4.29924,-12.3446 78.419825,78.419825 0 0 0 0.75282,-0.5223 78.419825,78.419825 0 0 0 1.11386,-0.8245 78.419825,78.419825 0 0 0 2.82945,-2.4122 78.419825,78.419825 0 0 0 1.0268,-0.8756 78.419825,78.419825 0 0 0 0.83732,-0.7145 78.419825,78.419825 0 0 0 1.32895,-1.2085 78.419825,78.419825 0 0 0 1.27005,-1.3239 78.419825,78.419825 0 0 0 0.82708,-0.7809 16.524178,10.64269 35.194737 0 0 12.66726,-2.5632 16.524178,10.64269 35.194737 0 0 -1.38017,-12.1859 78.419825,78.419825 0 0 0 0.48908,-0.886 78.419825,78.419825 0 0 0 0.45579,-0.8218 78.419825,78.419825 0 0 0 0.92436,-1.6875 78.419825,78.419825 0 0 0 1.3136,-2.535 78.419825,78.419825 0 0 0 0.70159,-1.6491 78.419825,78.419825 0 0 0 0.31239,-0.6196 78.419825,78.419825 0 0 0 0.69906,-1.7489 78.419825,78.419825 0 0 0 0.44041,-1.0268 78.419825,78.419825 0 0 0 0.80147,-2.0254 78.419825,78.419825 0 0 0 0.65551,-2.10215 78.419825,78.419825 0 0 0 0.0846,-0.26132 78.419825,78.419825 0 0 0 0.56332,-1.80515 16.524178,10.64269 12.127342 0 0 10.2219,-7.29257 16.524178,10.64269 12.127342 0 0 -0.0333,-3.02913 16.524178,10.64269 8.0049743 0 0 -0.0231,-0.14342 16.524178,10.64269 12.127342 0 0 -0.0282,-0.11537 16.524178,10.64269 8.0049743 0 0 -6.87776,-7.96597 78.419825,78.419825 0 0 0 0.005,-0.82195 78.419825,78.419825 0 0 0 0.0282,-5.11863 78.419825,78.419825 0 0 0 -0.0691,-2.47865 78.419825,78.419825 0 0 0 -0.82965,-8.41412 78.419825,78.419825 0 0 0 -0.0131,-0.0564 78.419825,78.419825 0 0 0 -0.33288,-1.55429 10.64269,16.524178 74.937579 0 0 5.83304,-11.21284 10.64269,16.524178 74.937579 0 0 -11.53292,-6.81375 78.419825,78.419825 0 0 0 -0.77073,-1.68998 78.419825,78.419825 0 0 0 -0.0973,-0.21254 78.419825,78.419825 0 0 0 -0.15108,-0.2791 78.419825,78.419825 0 0 0 -0.75282,-1.65926 78.419825,78.419825 0 0 0 -1.66439,-2.82689 78.419825,78.419825 0 0 0 -0.35847,-0.6632 78.419825,78.419825 0 0 0 -0.0742,-0.12546 78.419825,78.419825 0 0 0 -0.31751,-0.58894 78.419825,78.419825 0 0 0 -0.17413,-0.25862 78.419825,78.419825 0 0 0 -0.33799,-0.5787 78.419825,78.419825 0 0 0 -0.338,-0.50187 78.419825,78.419825 0 0 0 -1.13946,-1.84875 10.64269,16.524178 47.322079 0 0 0.32775,-13.25619 10.64269,16.524178 47.322079 0 0 -12.56227,-1.06521 78.419825,78.419825 0 0 0 -0.71441,-0.62223 78.419825,78.419825 0 0 0 -0.71184,-0.61454 78.419825,78.419825 0 0 0 -1.45186,-1.25981 78.419825,78.419825 0 0 0 -2.20467,-1.81547 78.419825,78.419825 0 0 0 -1.46466,-1.03448 78.419825,78.419825 0 0 0 -0.54029,-0.43274 78.419825,78.419825 0 0 0 -1.56452,-1.0524 78.419825,78.419825 0 0 0 -0.91157,-0.64527 78.419825,78.419825 0 0 0 -1.81034,-1.2086 78.419825,78.419825 0 0 0 -0.91414,-0.51725 78.419825,78.419825 0 0 0 -1.45954,-0.8962 78.419825,78.419825 0 0 0 -1.2675,-0.66575 10.64269,16.524178 20.132316 0 0 -5.76902,-11.98359 10.64269,16.524178 20.132316 0 0 -2.09713,-0.41738 10.64269,16.524178 20.132316 0 0 -0.38152,0.0105 10.64269,16.524178 23.686283 0 0 -9.73282,5.03668 78.419825,78.419825 0 0 0 -9.3897,-2.0792 78.419825,78.419825 0 0 0 -7.80982,-0.69392 78.419825,78.419825 0 0 0 -1.38272,0.0153 16.524178,10.64269 86.49652 0 0 -8.95183,-7.62802 z m 24.1797,25.59058 a 63.372788,63.372788 0 0 1 45.87049,60.85766 63.372788,63.372788 0 0 1 -63.37216,63.37207 63.372788,63.372788 0 0 1 -62.306957,-51.95176 61.788475,60.996312 0 0 0 59.930727,46.40546 61.788475,60.996312 0 0 0 61.78715,-60.99579 61.788475,60.996312 0 0 0 -41.90925,-57.68764 z"
       id="path6136"
       inkscape:connector-curvature="0"
       inkscape:export-xdpi="90"
       inkscape:export-ydpi="90" />
    <text
       xml:space="preserve"
       style="font-style:italic;font-variant:normal;font-weight:bold;font-stretch:normal;font-size:43.64762115px;line-height:125%;font-family:Sans;-inkscape-font-specification:'Sans, Bold Italic';text-align:start;letter-spacing:0px;word-spacing:0px;writing-mode:lr-tb;text-anchor:start;fill:#b3b3b3;fill-opacity:1;stroke:none;stroke-width:1px;stroke-linecap:butt;stroke-linejoin:miter;stroke-opacity:1;"
       x="106.01443"
       y="838.5072"
       id="text6217"
       sodipodi:linespacing="125%"
       transform="scale(0.85511841,1.1694287)"
       inkscape:export-xdpi="90"
       inkscape:export-ydpi="90"><tspan
         sodipodi:role="line"
         id="tspan6219"
         x="106.01443"
         y="838.5072"
         style="font-style:italic;font-variant:normal;font-weight:bold;font-stretch:normal;font-size:43.64762115px;line-height:125%;font-family:Sans;-inkscape-font-specification:'Sans, Bold Italic';text-align:start;writing-mode:lr-tb;text-anchor:start;fill:#b3b3b3;">PHP</tspan></text>
    <text
       xml:space="preserve"
       style="font-style:normal;font-variant:normal;font-weight:normal;font-stretch:normal;font-size:22.94291496px;line-height:125%;font-family:sans-serif;-inkscape-font-specification:'sans-serif, Normal';text-align:start;letter-spacing:0px;word-spacing:0px;writing-mode:lr-tb;text-anchor:start;fill:#b3b3b3;fill-opacity:1;stroke:none;stroke-width:1px;stroke-linecap:butt;stroke-linejoin:miter;stroke-opacity:1;"
       x="81.127983"
       y="1000.9062"
       id="text6225"
       sodipodi:linespacing="125%"
       transform="matrix(0.99996701,-0.00812286,0.00812286,0.99996701,0,0)"
       inkscape:export-xdpi="90"
       inkscape:export-ydpi="90"><tspan
         sodipodi:role="line"
         id="tspan6227"
         x="81.127983"
         y="1000.9062"
         style="font-style:normal;font-variant:normal;font-weight:normal;font-stretch:normal;font-size:22.94291496px;line-height:125%;font-family:sans-serif;-inkscape-font-specification:'sans-serif, Normal';text-align:start;writing-mode:lr-tb;text-anchor:start;fill:#b3b3b3;">Leuven</tspan></text>
  </g>
</svg>
