<?xml version="1.0" encoding="UTF-8" standalone="no"?>
<!-- Created with Inkscape (http://www.inkscape.org/) -->

<svg
   xmlns:dc="http://purl.org/dc/elements/1.1/"
   xmlns:cc="http://creativecommons.org/ns#"
   xmlns:rdf="http://www.w3.org/1999/02/22-rdf-syntax-ns#"
   xmlns:svg="http://www.w3.org/2000/svg"
   xmlns="http://www.w3.org/2000/svg"
   xmlns:sodipodi="http://sodipodi.sourceforge.net/DTD/sodipodi-0.dtd"
   xmlns:inkscape="http://www.inkscape.org/namespaces/inkscape"
   width="210mm"
   height="297mm"
   viewBox="0 0 744.09448819 1052.3622047"
   id="svg2"
   version="1.1"
   inkscape:version="0.91 r13725"
   sodipodi:docname="php_leuven.svg">
  <defs
     id="defs4" />
  <sodipodi:namedview
     id="base"
     pagecolor="#ffffff"
     bordercolor="#666666"
     borderopacity="1.0"
     inkscape:pageopacity="0.0"
     inkscape:pageshadow="2"
     inkscape:zoom="1.979899"
     inkscape:cx="257.29948"
     inkscape:cy="371.63691"
     inkscape:document-units="px"
     inkscape:current-layer="g6130"
     showgrid="false"
     inkscape:window-width="1600"
     inkscape:window-height="1171"
     inkscape:window-x="-9"
     inkscape:window-y="-9"
     inkscape:window-maximized="1" />
  <metadata
     id="metadata7">
    <rdf:RDF>
      <cc:Work
         rdf:about="">
        <dc:format>image/svg+xml</dc:format>
        <dc:type
           rdf:resource="http://purl.org/dc/dcmitype/StillImage" />
        <dc:title></dc:title>
      </cc:Work>
    </rdf:RDF>
  </metadata>
  <g
     inkscape:label="Laag 1"
     inkscape:groupmode="layer"
     id="layer1">
    <g
       id="g3347"
       transform="translate(137.45634,570.06847)">
      <g
         transform="translate(0,-875.19653)"
         inkscape:label="Layer 1"
         id="layer1-5" />
      <g
         style="fill:#ff0000"
         transform="translate(-46.303746,-886.89264)"
         id="g6130">
        <path
           inkscape:export-ydpi="90"
           inkscape:export-xdpi="90"
           inkscape:connector-curvature="0"
           id="path6136"
           d="m 127.50926,888.45999 a 16.524178,10.64269 86.49652 0 0 -0.70416,0.008 16.524178,10.64269 86.49652 0 0 -8.87502,9.51004 78.419825,78.419825 0 0 0 -12.6852,3.95101 16.524178,10.64269 58.88102 0 0 -12.590445,-2.70399 16.524178,10.64269 58.88102 0 0 -3.638604,11.66607 78.419825,78.419825 0 0 0 -9.773794,8.22719 78.419825,78.419825 0 0 0 -0.0409,0.0409 78.419825,78.419825 0 0 0 -4.040617,4.47336 16.524178,10.64269 35.813625 0 0 -12.139786,2.61181 16.524178,10.64269 35.813625 0 0 -1.188116,2.78593 16.524178,10.64269 31.691257 0 0 -0.03579,0.14083 16.524178,10.64269 35.813625 0 0 -0.02045,0.11773 16.524178,10.64269 31.691257 0 0 3.07784,10.0324 78.419825,78.419825 0 0 0 -0.655512,1.352 78.419825,78.419825 0 0 0 -0.588939,1.21372 78.419825,78.419825 0 0 0 -0.478825,0.99095 78.419825,78.419825 0 0 0 -0.732338,1.63878 78.419825,78.419825 0 0 0 -0.632465,1.72328 78.419825,78.419825 0 0 0 -0.650386,1.53636 78.419825,78.419825 0 0 0 -0.476269,1.53635 78.419825,78.419825 0 0 0 -0.220213,0.60175 78.419825,78.419825 0 0 0 -0.696482,2.10992 78.419825,78.419825 0 0 0 -0.880851,3.09065 78.419825,78.419825 0 0 0 -0.04602,0.15107 78.419825,78.419825 0 0 0 -0.01049,0.0462 78.419825,78.419825 0 0 0 -0.289343,1.01911 78.419825,78.419825 0 0 0 -0.115239,0.4353 16.524178,10.64269 8.6238621 0 0 -9.650885,7.88151 16.524178,10.64269 8.6238621 0 0 7.66387,10.79291 78.419825,78.419825 0 0 0 0.03068,0.96534 78.419825,78.419825 0 0 0 0.01049,1.11642 78.419825,78.419825 0 0 0 0.07932,2.17651 78.419825,78.419825 0 0 0 0.24326,2.18928 78.419825,78.419825 0 0 0 0.02819,0.27138 78.419825,78.419825 0 0 0 0.412265,3.72056 78.419825,78.419825 0 0 0 0.194596,1.41092 78.419825,78.419825 0 0 0 0.227895,1.0601 10.64269,16.524178 71.008362 0 0 -5.548807,11.94506 10.64269,16.524178 71.008362 0 0 11.112979,6.0251 78.419825,78.419825 0 0 0 0.632477,1.4647 78.419825,78.419825 0 0 0 1.060082,2.243 78.419825,78.419825 0 0 0 4.137921,7.372 78.419825,78.419825 0 0 0 0.0333,0.049 78.419825,78.419825 0 0 0 3.490092,4.842 10.64269,16.524178 43.818599 0 0 0.50443,13.2075 10.64269,16.524178 43.818599 0 0 1.75145,1.2266 l 0.0052,0 a 10.64269,16.524178 43.818599 0 0 10.815953,-0.9142 78.419825,78.419825 0 0 0 8.234873,6.0328 78.419825,78.419825 0 0 0 2.79104,1.5313 8.5356225,9.7859892 20.531182 0 0 4.673103,11.8273 8.5356225,9.7859892 20.531182 0 0 11.01823,-5.2211 78.419825,78.419825 0 0 0 16.04981,3.0958 10.64269,16.524178 0 0 0 9.20022,8.2682 10.64269,16.524178 0 0 0 9.42812,-8.9134 78.419825,78.419825 0 0 0 16.63618,-4.3787 78.419825,78.419825 0 0 0 0.0538,-0.021 78.419825,78.419825 0 0 0 1.48514,-0.6682 16.524178,10.64269 62.810237 0 0 11.90164,3.0982 16.524178,10.64269 62.810237 0 0 4.29924,-12.3446 78.419825,78.419825 0 0 0 0.75282,-0.5223 78.419825,78.419825 0 0 0 1.11386,-0.8245 78.419825,78.419825 0 0 0 2.82945,-2.4122 78.419825,78.419825 0 0 0 1.0268,-0.8756 78.419825,78.419825 0 0 0 0.83732,-0.7145 78.419825,78.419825 0 0 0 1.32895,-1.2085 78.419825,78.419825 0 0 0 1.27005,-1.3239 78.419825,78.419825 0 0 0 0.82708,-0.7809 16.524178,10.64269 35.194737 0 0 12.66726,-2.5632 16.524178,10.64269 35.194737 0 0 -1.38017,-12.1859 78.419825,78.419825 0 0 0 0.48908,-0.886 78.419825,78.419825 0 0 0 0.45579,-0.8218 78.419825,78.419825 0 0 0 0.92436,-1.6875 78.419825,78.419825 0 0 0 1.3136,-2.535 78.419825,78.419825 0 0 0 0.70159,-1.6491 78.419825,78.419825 0 0 0 0.31239,-0.6196 78.419825,78.419825 0 0 0 0.69906,-1.7489 78.419825,78.419825 0 0 0 0.44041,-1.0268 78.419825,78.419825 0 0 0 0.80147,-2.0254 78.419825,78.419825 0 0 0 0.65551,-2.10215 78.419825,78.419825 0 0 0 0.0846,-0.26132 78.419825,78.419825 0 0 0 0.56332,-1.80515 16.524178,10.64269 12.127342 0 0 10.2219,-7.29257 16.524178,10.64269 12.127342 0 0 -0.0333,-3.02913 16.524178,10.64269 8.0049743 0 0 -0.0231,-0.14342 16.524178,10.64269 12.127342 0 0 -0.0282,-0.11537 16.524178,10.64269 8.0049743 0 0 -6.87776,-7.96597 78.419825,78.419825 0 0 0 0.005,-0.82195 78.419825,78.419825 0 0 0 0.0282,-5.11863 78.419825,78.419825 0 0 0 -0.0691,-2.47865 78.419825,78.419825 0 0 0 -0.82965,-8.41412 78.419825,78.419825 0 0 0 -0.0131,-0.0564 78.419825,78.419825 0 0 0 -0.33288,-1.55429 10.64269,16.524178 74.937579 0 0 5.83304,-11.21284 10.64269,16.524178 74.937579 0 0 -11.53292,-6.81375 78.419825,78.419825 0 0 0 -0.77073,-1.68998 78.419825,78.419825 0 0 0 -0.0973,-0.21254 78.419825,78.419825 0 0 0 -0.15108,-0.2791 78.419825,78.419825 0 0 0 -0.75282,-1.65926 78.419825,78.419825 0 0 0 -1.66439,-2.82689 78.419825,78.419825 0 0 0 -0.35847,-0.6632 78.419825,78.419825 0 0 0 -0.0742,-0.12546 78.419825,78.419825 0 0 0 -0.31751,-0.58894 78.419825,78.419825 0 0 0 -0.17413,-0.25862 78.419825,78.419825 0 0 0 -0.33799,-0.5787 78.419825,78.419825 0 0 0 -0.338,-0.50187 78.419825,78.419825 0 0 0 -1.13946,-1.84875 10.64269,16.524178 47.322079 0 0 0.32775,-13.25619 10.64269,16.524178 47.322079 0 0 -12.56227,-1.06521 78.419825,78.419825 0 0 0 -0.71441,-0.62223 78.419825,78.419825 0 0 0 -0.71184,-0.61454 78.419825,78.419825 0 0 0 -1.45186,-1.25981 78.419825,78.419825 0 0 0 -2.20467,-1.81547 78.419825,78.419825 0 0 0 -1.46466,-1.03448 78.419825,78.419825 0 0 0 -0.54029,-0.43274 78.419825,78.419825 0 0 0 -1.56452,-1.0524 78.419825,78.419825 0 0 0 -0.91157,-0.64527 78.419825,78.419825 0 0 0 -1.81034,-1.2086 78.419825,78.419825 0 0 0 -0.91414,-0.51725 78.419825,78.419825 0 0 0 -1.45954,-0.8962 78.419825,78.419825 0 0 0 -1.2675,-0.66575 10.64269,16.524178 20.132316 0 0 -5.76902,-11.98359 10.64269,16.524178 20.132316 0 0 -2.09713,-0.41738 10.64269,16.524178 20.132316 0 0 -0.38152,0.0105 10.64269,16.524178 23.686283 0 0 -9.73282,5.03668 78.419825,78.419825 0 0 0 -9.3897,-2.0792 78.419825,78.419825 0 0 0 -7.80982,-0.69392 78.419825,78.419825 0 0 0 -1.38272,0.0153 16.524178,10.64269 86.49652 0 0 -8.95183,-7.62802 z m 24.1797,25.59058 a 63.372788,63.372788 0 0 1 45.87049,60.85766 63.372788,63.372788 0 0 1 -63.37216,63.37207 63.372788,63.372788 0 0 1 -62.306957,-51.95176 61.788475,60.996312 0 0 0 59.930727,46.40546 61.788475,60.996312 0 0 0 61.78715,-60.99579 61.788475,60.996312 0 0 0 -41.90925,-57.68764 z"
           style="fill:#a70c28;fill-opacity:1" />
        <g
           style="fill:#800000"
           id="g3357"
           transform="matrix(2.1787452,0,0,2.1598863,366.64541,1065.6334)">
          <path
             id="path3365"
             d="m -87.464272,-61.022585 c -0.694,-0.862 -1.474,-1.64 -2.335,-2.333 -2.604,-2.094 -5.908,-3.354 -9.508,-3.354 -4.842998,0 -9.148998,2.274 -11.930998,5.804 -2.042,2.585 -3.265,5.845 -3.265,9.393 0,8.392 6.803,15.194 15.192998,15.194 0.315,0 0.623,-0.023 0.932,-0.042 10e-4,0.002 0.004,0.014 0.004,0.014 0.035,-0.005 0.063,-0.012 0.097,-0.019 1.551,-0.104 3.041,-0.436 4.429,-0.973 0.008,-0.051 0.022,-0.1 0.028,-0.147 1.878,-0.678 3.28,-1.521 4.299,-2.438 -0.003,0.009 -0.004,0.017 -0.004,0.023 0.011,-0.008 0.023,-0.018 0.032,-0.025 -0.067,1.547 -0.307,3.042 -0.665,4.477 -0.014,0.08 -0.028,0.172 -0.042,0.248 0,0 -0.019,0.019 -0.025,0.023 -2.022,7.715 -7.956,13.524 -15.209998,14.455 l 0,4.008 c 13.796998,-1.044 24.667998,-12.56 24.667998,-26.627 0.002,-6.782 -2.532,-12.972 -6.697,-17.681 z m -6.529,11.461 c -0.024,-1.854 0.302,-3.036 1.67,-3.239 1.781,-0.263 2.629,1.654 2.951,4.374 -1.214,-0.981 -2.859,-1.476 -4.621,-1.135 z"
             inkscape:connector-curvature="0"
             style="fill:#800000" />
          <g
             id="g3361"
             transform="translate(-147.48227,-83.337585)"
             style="fill:#800000">
            <path
               id="path3363"
               d="m 38.454,62.615 0,-3.16 3.137,-0.401 c 4.521,-0.581 8.413,-3.683 10.693,-8.004 0.129,-0.332 0.255,-0.663 0.368,-0.989 -1.459,0.36 -2.959,0.553 -4.478,0.553 -10.359,0 -18.788,-8.427 -18.788,-18.79 0,-4.255 1.396,-8.272 4.036,-11.618 2.712,-3.439 6.441,-5.766 10.592,-6.704 -1.313,-0.199 -2.646,-0.333 -4.014,-0.333 -14.818,0 -26.83,12.01 -26.83,26.83 0,14.295 11.187,25.946 25.282,26.753 l 0,-0.126 0,-4.011 0.002,0 z"
               inkscape:connector-curvature="0"
               style="fill:#800000" />
          </g>
        </g>
        <text
           inkscape:export-ydpi="90"
           inkscape:export-xdpi="90"
           transform="scale(0.85511841,1.1694287)"
           sodipodi:linespacing="125%"
           id="text6217"
           y="838.5072"
           x="106.01443"
           style="font-style:italic;font-variant:normal;font-weight:bold;font-stretch:normal;font-size:43.64762115px;line-height:125%;font-family:Sans;-inkscape-font-specification:'Sans, Bold Italic';text-align:start;letter-spacing:0px;word-spacing:0px;writing-mode:lr-tb;text-anchor:start;fill:#000000;fill-opacity:1;stroke:none;stroke-width:1px;stroke-linecap:butt;stroke-linejoin:miter;stroke-opacity:1"
           xml:space="preserve"><tspan
             style="font-style:italic;font-variant:normal;font-weight:bold;font-stretch:normal;font-size:43.64762115px;line-height:125%;font-family:Sans;-inkscape-font-specification:'Sans, Bold Italic';text-align:start;writing-mode:lr-tb;text-anchor:start;fill:#ffffff"
             y="838.5072"
             x="106.01443"
             id="tspan6219"
             sodipodi:role="line">PHP</tspan></text>
        <text
           inkscape:export-ydpi="90"
           inkscape:export-xdpi="90"
           transform="matrix(0.99996701,-0.00812286,0.00812286,0.99996701,0,0)"
           sodipodi:linespacing="125%"
           id="text6225"
           y="1000.9062"
           x="81.127983"
           style="font-style:normal;font-variant:normal;font-weight:normal;font-stretch:normal;font-size:22.94291496px;line-height:125%;font-family:sans-serif;-inkscape-font-specification:'sans-serif, Normal';text-align:start;letter-spacing:0px;word-spacing:0px;writing-mode:lr-tb;text-anchor:start;fill:#000000;fill-opacity:1;stroke:none;stroke-width:1px;stroke-linecap:butt;stroke-linejoin:miter;stroke-opacity:1"
           xml:space="preserve"><tspan
             style="font-style:normal;font-variant:normal;font-weight:normal;font-stretch:normal;font-size:22.94291496px;line-height:125%;font-family:sans-serif;-inkscape-font-specification:'sans-serif, Normal';text-align:start;writing-mode:lr-tb;text-anchor:start;fill:#ffffff"
             y="1000.9062"
             x="81.127983"
             id="tspan6227"
             sodipodi:role="line">Leuven</tspan></text>
      </g>
    </g>
  </g>
</svg>
