<?xml version="1.0" encoding="utf-8"?>
<!-- Generator: Adobe Illustrator 16.0.4, SVG Export Plug-In . SVG Version: 6.00 Build 0)  -->
<!DOCTYPE svg PUBLIC "-//W3C//DTD SVG 1.1//EN" "http://www.w3.org/Graphics/SVG/1.1/DTD/svg11.dtd">
<svg version="1.1" id="Layer_1" xmlns="http://www.w3.org/2000/svg" xmlns:xlink="http://www.w3.org/1999/xlink" x="0px" y="0px"
	 width="283.46px" height="283.46px" viewBox="0 0 283.46 283.46" enable-background="new 0 0 283.46 283.46" xml:space="preserve">
<path fill="#A8182B" d="M168.189,47.895c42.183,12.121,71.253,50.691,71.283,94.582c0,54.385-44.095,98.48-98.481,98.48
	c-47.531-0.023-88.266-33.98-96.833-80.739c10.562,42.319,48.991,72.071,93.138,72.119c53.034,0,96.022-42.441,96.022-94.793
	C233.273,96.985,207.094,60.948,168.189,47.895z M130.613,8.126c-0.365-0.015-0.729-0.007-1.093,0.015
	c-6.17,0.395-11.489,6.092-13.795,14.774c-6.731,1.487-13.326,3.544-19.715,6.139c-6.784-5.722-14.312-7.338-19.562-4.196
	c-4.992,3.027-7.141,9.917-5.661,18.128c-5.396,3.839-10.48,8.119-15.185,12.786l-0.067,0.059c-2.178,2.24-4.272,4.555-6.275,6.953
	c-8.195-2.284-15.389-0.736-18.864,4.058c-0.903,1.269-1.524,2.726-1.851,4.334c-0.016,0.068-0.039,0.145-0.055,0.22
	c-0.007,0.059-0.021,0.122-0.028,0.182c-1.056,4.674,0.681,10.335,4.781,15.586c-0.342,0.698-0.684,1.404-1.019,2.1
	c-0.31,0.631-0.613,1.261-0.916,1.891c-0.25,0.508-0.502,1.022-0.745,1.541c-0.386,0.842-0.768,1.692-1.138,2.542
	c-0.334,0.896-0.66,1.783-0.979,2.677c-0.35,0.799-0.684,1.595-1.01,2.392c-0.256,0.797-0.506,1.584-0.742,2.389
	c-0.115,0.313-0.229,0.624-0.342,0.935c-0.378,1.083-0.736,2.178-1.085,3.276c-0.486,1.595-0.941,3.196-1.366,4.805
	c-0.023,0.076-0.044,0.159-0.076,0.235l-0.015,0.068c-0.152,0.531-0.304,1.055-0.447,1.586c-0.061,0.228-0.124,0.447-0.183,0.673
	c-8.371,1.7-14.091,6.376-14.996,12.249c-0.924,6.215,3.69,12.71,11.915,16.778c0.008,0.501,0.023,1,0.046,1.495
	c0,0.584,0.006,1.161,0.014,1.737c0.023,1.131,0.068,2.254,0.122,3.385c0.113,1.138,0.235,2.269,0.379,3.399
	c0.015,0.144,0.031,0.28,0.047,0.425c0.167,1.928,0.378,3.854,0.637,5.782c0.097,0.729,0.195,1.465,0.303,2.193
	c0.115,0.544,0.235,1.1,0.357,1.646c-7.3,5.461-10.632,12.642-8.629,18.561c1.965,5.691,8.583,9.28,17.272,9.364
	c0.318,0.765,0.652,1.525,0.986,2.276c0.53,1.168,1.076,2.329,1.646,3.482c1.934,3.938,4.082,7.764,6.427,11.459l0.053,0.075
	c1.715,2.578,3.522,5.092,5.426,7.528c-4.029,8.218-3.726,16.168,0.781,20.525c0.798,0.759,1.707,1.404,2.725,1.905h0.008
	c4.446,2.192,10.585,1.675,16.807-1.419c4.06,3.399,8.332,6.533,12.801,9.371c1.426,0.827,2.875,1.616,4.332,2.381
	c-2.625,7.75,0.585,15.877,7.264,18.381c6.358,2.383,13.742-1.123,17.126-8.112c8.119,2.467,16.48,4.083,24.942,4.812
	c2.945,7.938,8.393,12.831,14.296,12.845c6.161-0.014,11.814-5.355,14.653-13.847c8.84-1.312,17.514-3.597,25.853-6.807l0.084-0.03
	c0.773-0.342,1.54-0.685,2.307-1.04c6.229,5.646,13.271,7.48,18.5,4.81c5.509-2.844,8.097-10.25,6.678-19.184
	c0.395-0.264,0.781-0.536,1.169-0.812c0.584-0.415,1.16-0.848,1.729-1.28c1.495-1.215,2.967-2.459,4.401-3.749
	c0.531-0.447,1.07-0.903,1.594-1.36c0.439-0.362,0.872-0.735,1.305-1.105c0.69-0.622,1.381-1.247,2.064-1.882
	c0.668-0.676,1.32-1.366,1.973-2.057c0.433-0.402,0.857-0.805,1.282-1.214c8.545,2.55,16.125,1.017,19.691-3.984
	c3.362-4.788,2.55-11.997-2.147-18.933c0.259-0.463,0.509-0.918,0.759-1.381c0.243-0.425,0.479-0.852,0.706-1.274
	c0.493-0.875,0.972-1.746,1.441-2.626c0.706-1.298,1.382-2.61,2.042-3.938c0.371-0.85,0.735-1.707,1.085-2.566
	c0.167-0.318,0.326-0.636,0.485-0.962c0.38-0.897,0.736-1.806,1.093-2.717c0.228-0.533,0.455-1.062,0.683-1.594
	c0.425-1.047,0.843-2.096,1.245-3.15c0.356-1.083,0.69-2.169,1.017-3.262c0.046-0.138,0.091-0.272,0.129-0.409
	c0.304-0.936,0.6-1.867,0.88-2.808c8.545-1.146,14.615-5.479,15.883-11.329c0.318-1.527,0.304-3.111-0.054-4.713
	c-0.007-0.068-0.022-0.144-0.03-0.222c-0.015-0.059-0.03-0.119-0.045-0.181c-0.919-4.72-4.796-9.212-10.692-12.376
	c0.008-0.425,0.008-0.85,0.008-1.276c0.106-2.654,0.121-5.303,0.046-7.958c-0.016-1.282-0.054-2.567-0.106-3.847
	c-0.197-4.378-0.622-8.75-1.29-13.075l-0.022-0.091c-0.16-0.805-0.334-1.609-0.517-2.413c7.156-4.94,10.624-11.61,9.068-17.43
	c-1.662-6.124-8.628-10.237-17.924-10.586c-0.387-0.88-0.789-1.76-1.199-2.625c-0.053-0.114-0.099-0.22-0.151-0.335
	c-0.076-0.143-0.151-0.287-0.235-0.431c-0.379-0.867-0.767-1.723-1.168-2.58c-0.835-1.48-1.692-2.944-2.588-4.394
	c-0.183-0.342-0.372-0.683-0.554-1.032c-0.038-0.062-0.076-0.129-0.114-0.189c-0.167-0.312-0.334-0.615-0.493-0.918
	c-0.091-0.136-0.183-0.266-0.273-0.402c-0.175-0.296-0.349-0.6-0.523-0.897c-0.175-0.264-0.349-0.522-0.531-0.78
	c-0.576-0.964-1.161-1.927-1.768-2.876c4.561-7.975,4.758-15.958,0.508-20.602c-4.074-4.409-11.549-5.039-19.524-1.654
	c-0.364-0.326-0.736-0.647-1.107-0.965c-0.364-0.319-0.736-0.636-1.108-0.955c-0.743-0.662-1.495-1.314-2.254-1.959
	c-1.123-0.962-2.269-1.903-3.422-2.821c-0.759-0.546-1.518-1.078-2.276-1.609c-0.281-0.22-0.562-0.448-0.843-0.669
	c-0.804-0.552-1.616-1.099-2.436-1.637c-0.463-0.334-0.94-0.668-1.411-1.002c-0.934-0.637-1.867-1.267-2.815-1.882
	c-0.471-0.266-0.948-0.539-1.419-0.797c-0.751-0.478-1.51-0.941-2.269-1.398c-0.653-0.347-1.313-0.696-1.974-1.03
	c0.433-9.212-3.05-16.436-8.962-18.629c-1.039-0.379-2.132-0.592-3.263-0.645c-0.197,0-0.395,0.008-0.592,0.015
	c-4.97-0.205-10.479,2.646-15.123,7.831c-4.796-1.383-9.668-2.458-14.593-3.232c-4.029-0.562-8.073-0.926-12.141-1.078
	c-0.714,0-1.427,0.006-2.147,0.023c-3.204-7.171-8.416-11.61-13.909-11.853V8.126z"/>
<g>
	<path fill="#801710" d="M183.995,117.107c-0.083-6.22,1.017-10.189,5.653-10.872c6.025-0.88,8.901,5.555,9.986,14.684
		C195.529,117.625,189.96,115.963,183.995,117.107z M206.1,78.637c-2.353-2.893-4.993-5.501-7.906-7.833
		c-8.818-7.025-20.003-11.259-32.197-11.259c-16.398,0-30.975,7.634-40.392,19.487c-6.914,8.673-11.057,19.614-11.057,31.529
		c0,28.167,23.031,51,51.44,51c1.07,0,2.109-0.075,3.157-0.144c0,0.008,0.015,0.044,0.015,0.044c0.114-0.014,0.213-0.036,0.326-0.06
		c5.251-0.351,10.298-1.464,14.995-3.265c0.03-0.173,0.075-0.34,0.099-0.491c6.358-2.276,11.102-5.106,14.554-8.188
		c-0.008,0.028-0.015,0.061-0.015,0.075c0.037-0.022,0.075-0.061,0.113-0.083c-0.228,5.198-1.039,10.214-2.254,15.032
		c-0.045,0.266-0.099,0.577-0.144,0.827c0,0-0.062,0.068-0.084,0.083c-6.845,25.892-26.938,45.394-51.501,48.518v13.456
		c46.713-3.506,83.523-42.16,83.523-89.384C228.781,115.22,220.199,94.441,206.1,78.637z"/>
	<path fill="#801710" d="M133.086,213.91v-10.608l10.623-1.349c15.306-1.95,28.486-12.361,36.204-26.862
		c0.433-1.115,0.865-2.224,1.244-3.323c-4.939,1.214-10.017,1.858-15.161,1.858c-35.073,0-63.613-28.289-63.613-63.075
		c0-14.279,4.729-27.765,13.668-38.994c9.181-11.542,21.808-19.35,35.861-22.499c-4.446-0.669-8.961-1.123-13.591-1.123
		c-50.173,0-90.846,40.316-90.846,90.065c0,47.98,37.881,87.09,85.603,89.799V213.91H133.086z"/>
</g>
<g>
	<path fill="#FFFFFF" d="M92.275,104.078l-2.306,16.21h6.041c2.587,0,4.561-0.827,5.918-2.489c1.374-1.654,2.065-4.067,2.065-7.224
		c0-2.102-0.501-3.711-1.488-4.826c-0.972-1.11-2.384-1.671-4.219-1.671H92.275z M82.836,93.214h18.181
		c4.47,0,7.961,1.394,10.473,4.188c2.504,2.791,3.763,6.663,3.763,11.595c0,3.036-0.423,5.934-1.274,8.679
		c-0.833,2.734-2.019,5.124-3.551,7.165c-1.7,2.208-3.718,3.81-6.039,4.796c-2.332,0.994-5.268,1.487-8.804,1.487h-7.222
		l-2.854,20.155H74.549L82.836,93.214z"/>
	<polygon fill="#FFFFFF" points="125.323,93.214 136.281,93.214 133.125,115.341 149.302,115.341 152.428,93.214 163.386,93.214 
		155.1,151.279 144.143,151.279 147.633,126.661 131.516,126.661 127.994,151.279 117.036,151.279 	"/>
	<path fill="#FFFFFF" d="M183.365,104.078l-2.307,16.21h6.04c2.588,0,4.561-0.827,5.919-2.489c1.374-1.654,2.064-4.067,2.064-7.224
		c0-2.102-0.501-3.711-1.487-4.826c-0.972-1.11-2.383-1.671-4.22-1.671H183.365z M173.926,93.214h18.182
		c4.469,0,7.96,1.394,10.472,4.188c2.504,2.791,3.764,6.663,3.764,11.595c0,3.036-0.425,5.934-1.274,8.679
		c-0.835,2.734-2.019,5.124-3.552,7.165c-1.7,2.208-3.718,3.81-6.04,4.796c-2.33,0.994-5.267,1.487-8.803,1.487h-7.224
		l-2.854,20.155H165.64L173.926,93.214z"/>
	<polygon fill="#FFFFFF" points="74.382,156.271 77.844,156.241 78.024,178.824 90.44,178.733 90.471,181.647 74.596,181.769 	"/>
	<path fill="#FFFFFF" d="M106.8,170.265c-0.047-1.715-0.538-3.081-1.487-4.098c-0.957-1.032-2.202-1.533-3.734-1.518
		c-1.76,0.022-3.17,0.529-4.217,1.518c-1.033,0.994-1.624,2.391-1.762,4.188L106.8,170.265z M109.926,171.145l0.031,1.549
		l-14.418,0.121c0.136,2.168,0.797,3.816,1.974,4.947c1.167,1.115,2.799,1.662,4.886,1.64c1.192-0.016,2.353-0.183,3.491-0.486
		c1.13-0.318,2.252-0.775,3.37-1.365l0.029,2.975c-1.115,0.485-2.269,0.864-3.46,1.123c-1.177,0.242-2.383,0.369-3.611,0.395
		c-3.036,0.015-5.457-0.851-7.255-2.612c-1.783-1.759-2.695-4.156-2.732-7.192c-0.022-3.134,0.805-5.622,2.489-7.467
		c1.676-1.836,3.945-2.77,6.799-2.792c2.588-0.016,4.629,0.789,6.13,2.428C109.145,166.046,109.905,168.292,109.926,171.145z"/>
	<path fill="#FFFFFF" d="M123.03,161.796 M115.231,173.877l-0.092-11.564l3.126-0.03l0.091,11.442
		c0.015,1.819,0.378,3.188,1.094,4.098c0.705,0.896,1.767,1.328,3.186,1.306c1.7,0,3.036-0.547,4.008-1.642
		c0.986-1.09,1.472-2.562,1.457-4.429l-0.092-10.837l3.157-0.032l0.152,19.125l-3.157,0.03l-0.031-2.944
		c-0.75,1.176-1.63,2.049-2.64,2.61c-0.994,0.562-2.154,0.848-3.49,0.848c-2.209,0.018-3.885-0.645-5.04-2.001
		C115.822,178.506,115.247,176.51,115.231,173.877z"/>
	<polygon fill="#FFFFFF" points="135.833,162.16 139.171,162.13 145.272,178.126 151.131,162.039 154.439,162.009 147.428,181.191 
		143.177,181.222 	"/>
	<path fill="#FFFFFF" d="M172.469,169.726c-0.046-1.715-0.539-3.082-1.487-4.098c-0.956-1.031-2.2-1.532-3.733-1.518
		c-1.761,0.021-3.172,0.531-4.219,1.518c-1.032,0.994-1.624,2.389-1.761,4.189L172.469,169.726z M175.595,170.604l0.03,1.55
		l-14.417,0.121c0.137,2.171,0.797,3.817,1.973,4.947c1.169,1.116,2.8,1.662,4.887,1.638c1.191-0.014,2.353-0.181,3.491-0.485
		c1.13-0.319,2.253-0.772,3.369-1.364l0.03,2.975c-1.116,0.485-2.27,0.865-3.461,1.123c-1.176,0.243-2.382,0.372-3.611,0.395
		c-3.035,0.015-5.456-0.85-7.255-2.61c-1.783-1.761-2.693-4.16-2.731-7.193c-0.022-3.135,0.805-5.625,2.489-7.467
		c1.677-1.837,3.945-2.771,6.799-2.793c2.588-0.015,4.629,0.789,6.131,2.429C174.813,165.505,175.572,167.753,175.595,170.604z"/>
	<path fill="#FFFFFF" d="M197.077,169.248l0.092,11.534l-3.127,0.028l-0.091-11.441c-0.022-1.798-0.395-3.142-1.123-4.037
		c-0.713-0.91-1.775-1.351-3.188-1.335c-1.699,0.022-3.035,0.576-4.006,1.667c-0.956,1.08-1.419,2.544-1.396,4.403l0.091,10.806
		l-3.156,0.03l-0.152-19.124l3.157-0.028l0.03,2.975c0.729-1.155,1.594-2.011,2.61-2.58c1.032-0.585,2.2-0.881,3.521-0.881
		c2.201-0.015,3.87,0.653,5.009,2.004C196.478,164.604,197.055,166.6,197.077,169.248z"/>
</g>
</svg>
